<?xml version="1.0" standalone="no"?>
<!DOCTYPE svg PUBLIC "-//W3C//DTD SVG 20010904//EN"
 "http://www.w3.org/TR/2001/REC-SVG-20010904/DTD/svg10.dtd">
<svg version="1.0" xmlns="http://www.w3.org/2000/svg"
 width="800.000000pt" height="800.000000pt" viewBox="0 0 800.000000 800.000000"
 preserveAspectRatio="xMidYMid meet">
<metadata>
Created by potrace 1.11, written by Peter Selinger 2001-2013
</metadata>
<g transform="translate(0.000000,800.000000) scale(0.100000,-0.100000)"
fill="#000000" stroke="none">
<path d="M0 4000 l0 -4000 4000 0 4000 0 0 4000 0 4000 -4000 0 -4000 0 0
-4000z m3380 639 l1315 -1652 3 109 c2 60 2 729 0 1486 l-3 1377 -30 31 c-42
45 -133 88 -239 115 -78 20 -147 30 -392 61 -37 4 -42 9 -67 59 l-27 55 790 0
c435 0 790 -2 790 -5 0 -3 -11 -28 -25 -55 -28 -55 -11 -49 -208 -71 -161 -17
-279 -55 -358 -113 -83 -61 -76 41 -83 -1266 -3 -641 -9 -1571 -12 -2068 l-7
-903 -55 3 -56 3 -1520 1892 c-837 1041 -1527 1898 -1534 1905 -10 10 -12
-328 -10 -1719 l3 -1732 30 -31 c75 -78 293 -140 588 -166 l78 -6 24 -49 c14
-27 25 -53 25 -59 0 -7 -251 -10 -785 -10 -534 0 -785 3 -785 10 0 6 11 32 24
59 l25 48 123 12 c267 25 434 94 478 195 17 38 18 134 24 1556 3 833 9 1637
12 1785 l6 270 -95 101 c-173 183 -344 274 -558 299 -31 4 -61 10 -66 13 -6 4
-22 31 -37 60 l-26 52 663 0 662 0 1315 -1651z m3120 -2106 l325 -355 3 283
c1 156 0 289 -2 296 -7 17 -70 32 -168 40 l-87 6 -26 38 c-14 21 -25 41 -25
44 0 3 149 5 330 5 220 0 330 -3 330 -10 0 -6 -6 -26 -14 -44 -13 -32 -15 -33
-89 -39 -41 -3 -88 -12 -104 -21 l-30 -15 -6 -173 c-4 -95 -7 -312 -7 -483 0
-170 -3 -408 -7 -528 l-6 -218 -43 3 -42 3 -492 545 c-271 300 -501 554 -511
565 -19 19 -19 11 -19 -473 l0 -493 35 -15 c20 -8 79 -19 132 -24 53 -5 99
-12 103 -17 12 -13 29 -71 23 -77 -4 -3 -148 -6 -321 -6 l-314 0 7 43 c4 23 8
43 9 44 1 1 39 7 85 12 128 16 127 14 134 173 4 73 7 322 8 552 l1 420 -55 56
c-70 70 -163 120 -224 120 -46 0 -48 2 -57 63 l-5 37 402 -1 402 0 325 -356z"/>
</g>
</svg>
